<?xml version="1.0" encoding="UTF-8" standalone="no"?>
<!-- Generator: Adobe Illustrator 11.0, SVG Export Plug-In . SVG Version: 6.0.0 Build 78)  -->
<svg id="svg2" xmlns:rdf="http://www.w3.org/1999/02/22-rdf-syntax-ns#" xmlns="http://www.w3.org/2000/svg" sodipodi:docname="Icon_apps_query.svg" version="1.0" xmlns:sodipodi="http://inkscape.sourceforge.net/DTD/sodipodi-0.dtd" xml:space="preserve" overflow="visible" height="540" sodipodi:version="0.32" width="540" enable-background="new 0 0 540 540" xmlns:cc="http://web.resource.org/cc/" xmlns:xlink="http://www.w3.org/1999/xlink" viewBox="0 0 540 540" xmlns:dc="http://purl.org/dc/elements/1.1/">
		<g id="Layer_1">
				<radialGradient id="path2296_1_" gradientUnits="userSpaceOnUse" cy="712.62" cx="52.446" gradientTransform="matrix(-1.5341 .0090374 .0086078 1.4606 344.19 -883.69)" r="233.79">
				<stop stop-color="#fff" offset="0"/>
				<stop stop-color="#FFF53C" offset=".7778"/>
				<stop stop-color="#E4DC4D" offset=".9588"/>
				<stop stop-color="#DDD00A" offset="1"/>
				</radialGradient>
				<circle id="path2296" sodipodi:rx="233.28877" sodipodi:ry="233.28877" r="261" sodipodi:type="arc" cx="269.9" cy="269.8" stroke="#AD8D00" sodipodi:cy="161.09625" sodipodi:cx="96.925125" stroke-width="15.819" fill="url(#path2296_1_)"/> 
				<linearGradient id="XMLID_1_" y2="283.11" gradientUnits="userSpaceOnUse" x2="62.854" gradientTransform="matrix(1.0171 0 0 -1.0169 209.17 781.61)" y1="889.75" x1="55.815">
				<stop stop-color="#FF8D1D" offset="0"/>
				<stop stop-color="#FFDE96" offset=".5"/>
				<stop stop-color="#FFEDC5" offset="1"/>
			</linearGradient>
			<path d="m270.5 25.7c-134.3 0-243.4 109-243.4 243.3s109.1 243.3 243.4 243.3c134.3 0 243.4-109.1 243.4-243.3s-109.1-243.3-243.4-243.3zm0 12.2c127.7 0 231.2 103.5 231.2 231.1s-103.5 231.1-231.2 231.1-231.2-103.5-231.2-231.1c0-127.7 103.5-231.1 231.2-231.1z" fill="url(#XMLID_1_)"/>
				<linearGradient id="XMLID_2_" y2="743.52" gradientUnits="userSpaceOnUse" x2="54.962" gradientTransform="matrix(1.059 0 0 -1.0587 206.02 803.53)" y1="274.65" x1="65.398">
				<stop stop-color="#FFFB9B" offset="0"/>
				<stop stop-color="#FFF527" offset=".5"/>
				<stop stop-color="#FDF46E" offset="1"/>
			</linearGradient>
			<path d="m269.9 16.5c-139.8 0-253.4 113.5-253.4 253.3s113.6 253.3 253.4 253.3c139.8 0 253.4-113.6 253.4-253.3s-113.6-253.3-253.4-253.3zm0 12.7c132.9 0 240.7 107.7 240.7 240.6s-107.8 240.6-240.7 240.6c-132.9 0-240.7-107.7-240.7-240.6s107.8-240.6 240.7-240.6z" fill="url(#XMLID_2_)"/>
				<radialGradient id="path1352_1_" gradientUnits="userSpaceOnUse" cy="563.78" cx="635.41" gradientTransform="matrix(1.6207e-8 .5708 1.3997 .0000046798 -519.02 -132.67)" r="227.65">
				<stop stop-color="#fff" offset=".5393"/>
				<stop stop-color="#FFF7BB" offset="1"/>
			</radialGradient>
			<path id="path1352" opacity=".71" d="m275.4 9.2c-109.7 0-203.3 59.8-242 151 38.6 91.2 121.2 150.8 231 150.8 109.7 0 203.7-64.4 242.4-155.5-38.7-91.2-121.7-146.3-231.4-146.3z" fill="url(#path1352_1_)"/>
				<linearGradient id="XMLID_3_" y2="-278.95" gradientUnits="userSpaceOnUse" x2="481.45" gradientTransform="matrix(1.1107 .1846 .1515 -1.0073 -219.86 64.017)" y1="41.698" x1="447.03">
				<stop offset="0"/>
				<stop stop-color="#5174A6" offset="1"/>
			</linearGradient>
			<linearGradient id="XMLID_4_" y2="46.158" gradientUnits="userSpaceOnUse" x2="459.62" y1="-278.83" x1="508.12">
				<stop offset="0"/>
				<stop stop-color="#453CA6" offset="1"/>
			</linearGradient>
			<path stroke="url(#XMLID_4_)" stroke-width="6.424" d="m380.8 212.6c-3 20.2-13.4 38.3-31.2 54.3s-46 31.8-84.6 47.4c-7.8 3.1-12.6 11-14.6 23.8-0.2 1.1-0.1 4.1 0.2 9 0.3 5.1 0.4 8.2 0.2 9.5-0.4 2.8-3.1 5.2-8 6.9-4.9 1.6-9.9 2-15.2 1.1-8.4-1.4-14.5-4-18.4-7.9-3.7-4-6.6-11-8.6-20.9-2.1-10.1-2.6-18.1-1.7-24.1 2.1-13.7 11.8-23.5 29.3-29.1 57.9-19.4 89.5-46.4 94.7-81.2 2.4-16.1-0.8-29.8-9.6-41-8.8-11.3-20.9-18.3-36.2-20.8-18.1-3-35.2 0.6-51.2 10.7-9.3 5.9-17.1 8.3-23.6 7.3-6.3-1-11.7-4.1-16.3-9.3-4.6-5.1-6.6-9.6-6-13.4 2.2-14.5 13.5-25.3 34.1-32.2 20.5-7.1 42.7-8.7 66.4-4.8 33.6 5.6 59.8 19.1 78.6 40.5 18.7 21.4 26 46.1 21.7 74.2m-128.6 215.5c-0.8 5.2-4.4 9.1-10.9 11.8-6.5 2.8-13.7 3.6-21.5 2.3-20.9-3.5-30-14-27.4-31.5 1-6.5 5.1-11.8 12.3-15.9 7.3-4.3 14.9-5.8 22.9-4.5 7.3 1.2 13.4 6.2 18.4 15 5.2 8.6 7.2 16.2 6.2 22.8" fill="url(#XMLID_3_)"/>
			<path d="m269.9 0c-148.9 0-269.9 121-269.9 269.8s121 269.8 269.9 269.8 269.9-121 269.9-269.8c-0.1-148.8-121-269.8-269.9-269.8zm0 17.7c139.3 0 252.1 112.8 252.1 252.1s-112.8 252.1-252.1 252.1c-139.3 0-252.2-112.8-252.2-252.1s112.9-252.1 252.2-252.1z" fill="#AD6D00"/>
		</g>
	</svg>
